<svg xmlns="http://www.w3.org/2000/svg" style="position:absolute;width:0;height:0;overflow:hidden" aria-hidden="true" focusable="false">
  <defs>
    <symbol id="mi-add" viewBox="0 -960 960 960"><path fill="currentColor" d="M450-450H200v-60h250v-250h60v250h250v60H510v250h-60v-250Z"/></symbol>
    <symbol id="mi-analytics" viewBox="0 -960 960 960"><path fill="currentColor" d="M284-277h60v-205h-60v205Zm332 0h60v-420h-60v420Zm-166 0h60v-118h-60v118Zm0-205h60v-60h-60v60ZM180-120q-24 0-42-18t-18-42v-600q0-24 18-42t42-18h600q24 0 42 18t18 42v600q0 24-18 42t-42 18H180Zm0-60h600v-600H180v600Zm0-600v600-600Z"/></symbol>
    <symbol id="mi-arrow_downward" viewBox="0 -960 960 960"><path fill="currentColor" d="M450-800v526L202-522l-42 42 320 320 320-320-42-42-248 248v-526h-60Z"/></symbol>
    <symbol id="mi-arrow_forward" viewBox="0 -960 960 960"><path fill="currentColor" d="M686-450H160v-60h526L438-758l42-42 320 320-320 320-42-42 248-248Z"/></symbol>
    <symbol id="mi-assignment_turned_in" viewBox="0 -960 960 960"><path fill="currentColor" d="m423-329 277-277-43-43-234 234-121-121-42 42 163 165ZM180-120q-24.75 0-42.37-17.63Q120-155.25 120-180v-600q0-24.75 17.63-42.38Q155.25-840 180-840h205q5-35 32-57.5t63-22.5q36 0 63 22.5t32 57.5h205q24.75 0 42.38 17.62Q840-804.75 840-780v600q0 24.75-17.62 42.37Q804.75-120 780-120H180Zm0-60h600v-600H180v600Zm324.5-627.5Q515-818 515-832t-10.5-24.5Q494-867 480-867t-24.5 10.5Q445-846 445-832t10.5 24.5Q466-797 480-797t24.5-10.5ZM180-180v-600 600Z"/></symbol>
    <symbol id="mi-auto_awesome" viewBox="0 -960 960 960"><path fill="currentColor" d="m162-121-42-42 326-326-185-46 192-120-16-225 173 145 209-84-85 209 146 173-226-17-119 192-46-185-327 326Zm25-544-67-67 68-68 67 67-68 68Zm372 251 63-102 120 9-78-92 45-111-111 45-92-78 9 120-102 64 117 29 29 116Zm174 294-67-68 67-67 67 68-67 67ZM578-579Z"/></symbol>
    <symbol id="mi-auto_stories" viewBox="0 -960 960 960"><path fill="currentColor" d="M480-160q-48-38-104-59t-116-21q-42 0-82.5 11T100-198q-21 11-40.5-1T40-234v-482q0-11 5.5-21T62-752q46-24 96-36t102-12q58 0 113.5 15T480-740v506q51-33 107-49.5T700-300q36 0 78.5 7t81.5 29v-505q9.89 3.75 19.44 7.87Q889-757 898-752q10 6 16 15.68 6 9.67 6 20.32v482q0 23-19.5 35t-40.5 1q-37-20-77.5-31T700-240q-60 0-116 21t-104 59Zm60-167v-353l260-260v387L540-327Zm-120 63v-439q-34-19-79-28t-81-9q-47 0-87.5 10T100-704.47V-264q35-17 75.5-26.5t85-9.5q44.5 0 84.5 9.5t75 26.5Zm0 0v-439 439Z"/></symbol>
    <symbol id="mi-book_5" viewBox="0 -960 960 960"><path fill="currentColor" d="M270-80q-45 0-77.5-29.64Q160-139.27 160-183v-564q0-36.57 22.12-65.43Q204.24-841.3 240-849l380-79v620l-360 77q-17.14 3.69-28.57 17.54Q220-199.62 220-183q0 19 15 31t35 12h470v-660h60v720H270Zm70-228 220-47v-499l-220 45v501Zm-60 12.81V-796l-20 4q-17 4-28.5 15.83Q220-764.35 220-747v471q9.06-5.2 19.03-9.1Q249-289 260-291l20-4.19ZM220-787v511-511Z"/></symbol>
    <symbol id="mi-build" viewBox="0 -960 960 960"><path fill="currentColor" d="M705-128 447-388q-23 8-46 13t-47 5q-97.08 0-165.04-67.67Q121-505.33 121-602q0-31 8.16-60.39T152-718l145 145 92-86-149-149q25.91-15.16 54.96-23.58Q324-840 354-840q99.17 0 168.58 69.42Q592-701.17 592-602q0 24-5 47t-13 46l259 258q11 10.96 11 26.48T833-198l-76 70q-10.7 11-25.85 11Q716-117 705-128Zm28-57 40-40-273-273q16-21 24-49.5t8-54.5q0-75-55.5-127T350-782l102 104q9 9 8.5 21.5T451-635L318-510q-9.27 8-21.64 8-12.36 0-20.36-8l-98-97q3 77 54.67 127T354-430q25 0 53-8t49-24l277 277ZM476-484Z"/></symbol>
    <symbol id="mi-calendar_month" viewBox="0 -960 960 960"><path fill="currentColor" d="M180-80q-24 0-42-18t-18-42v-620q0-24 18-42t42-18h65v-60h65v60h340v-60h65v60h65q24 0 42 18t18 42v620q0 24-18 42t-42 18H180Zm0-60h600v-430H180v430Zm0-490h600v-130H180v130Zm0 0v-130 130Zm300 230q-17 0-28.5-11.5T440-440q0-17 11.5-28.5T480-480q17 0 28.5 11.5T520-440q0 17-11.5 28.5T480-400Zm-188.5-11.5Q280-423 280-440t11.5-28.5Q303-480 320-480t28.5 11.5Q360-457 360-440t-11.5 28.5Q337-400 320-400t-28.5-11.5ZM640-400q-17 0-28.5-11.5T600-440q0-17 11.5-28.5T640-480q17 0 28.5 11.5T680-440q0 17-11.5 28.5T640-400ZM480-240q-17 0-28.5-11.5T440-280q0-17 11.5-28.5T480-320q17 0 28.5 11.5T520-280q0 17-11.5 28.5T480-240Zm-188.5-11.5Q280-263 280-280t11.5-28.5Q303-320 320-320t28.5 11.5Q360-297 360-280t-11.5 28.5Q337-240 320-240t-28.5-11.5ZM640-240q-17 0-28.5-11.5T600-280q0-17 11.5-28.5T640-320q17 0 28.5 11.5T680-280q0 17-11.5 28.5T640-240Z"/></symbol>
    <symbol id="mi-campaign" viewBox="0 -960 960 960"><path fill="currentColor" d="M730-450v-60h150v60H730Zm50 290-121-90 36-48 121 90-36 48Zm-82-503-36-48 118-89 36 48-118 89ZM210-200v-160h-70q-24.75 0-42.37-17.63Q80-395.25 80-420v-120q0-24.75 17.63-42.38Q115.25-600 140-600h180l200-120v480L320-360h-50v160h-60Zm250-146v-268l-124 74H140v120h196l124 74Zm100 0v-268q27 24 43.5 58.5T620-480q0 41-16.5 75.5T560-346ZM300-480Z"/></symbol>
    <symbol id="mi-casino" viewBox="0 -960 960 960"><path fill="currentColor" d="M335.5-264.62q14.5-14.62 14.5-35.5 0-20.88-14.62-35.38-14.62-14.5-35.5-14.5-20.88 0-35.38 14.62-14.5 14.62-14.5 35.5 0 20.88 14.62 35.38 14.62 14.5 35.5 14.5 20.88 0 35.38-14.62Zm0-360q14.5-14.62 14.5-35.5 0-20.88-14.62-35.38-14.62-14.5-35.5-14.5-20.88 0-35.38 14.62-14.5 14.62-14.5 35.5 0 20.88 14.62 35.38 14.62 14.5 35.5 14.5 20.88 0 35.38-14.62Zm180 180q14.5-14.62 14.5-35.5 0-20.88-14.62-35.38-14.62-14.5-35.5-14.5-20.88 0-35.38 14.62-14.5 14.62-14.5 35.5 0 20.88 14.62 35.38 14.62 14.5 35.5 14.5 20.88 0 35.38-14.62Zm180 180q14.5-14.62 14.5-35.5 0-20.88-14.62-35.38-14.62-14.5-35.5-14.5-20.88 0-35.38 14.62-14.5 14.62-14.5 35.5 0 20.88 14.62 35.38 14.62 14.5 35.5 14.5 20.88 0 35.38-14.62Zm0-360q14.5-14.62 14.5-35.5 0-20.88-14.62-35.38-14.62-14.5-35.5-14.5-20.88 0-35.38 14.62-14.5 14.62-14.5 35.5 0 20.88 14.62 35.38 14.62 14.5 35.5 14.5 20.88 0 35.38-14.62ZM180-120q-24 0-42-18t-18-42v-600q0-24 18-42t42-18h600q24 0 42 18t18 42v600q0 24-18 42t-42 18H180Zm0-60h600v-600H180v600Zm0-600v600-600Z"/></symbol>
    <symbol id="mi-chat" viewBox="0 -960 960 960"><path fill="currentColor" d="M240-399h313v-60H240v60Zm0-130h480v-60H240v60Zm0-130h480v-60H240v60ZM80-80v-740q0-24 18-42t42-18h680q24 0 42 18t18 42v520q0 24-18 42t-42 18H240L80-80Zm134-220h606v-520H140v600l74-80Zm-74 0v-520 520Z"/></symbol>
    <symbol id="mi-chat_bubble" viewBox="0 -960 960 960"><path fill="currentColor" d="M80-80v-740q0-24 18-42t42-18h680q24 0 42 18t18 42v520q0 24-18 42t-42 18H240L80-80Zm134-220h606v-520H140v600l74-80Zm-74 0v-520 520Z"/></symbol>
    <symbol id="mi-check_circle" viewBox="0 -960 960 960"><path fill="currentColor" d="m421-298 283-283-46-45-237 237-120-120-45 45 165 166Zm59 218q-82 0-155-31.5t-127.5-86Q143-252 111.5-325T80-480q0-83 31.5-156t86-127Q252-817 325-848.5T480-880q83 0 156 31.5T763-763q54 54 85.5 127T880-480q0 82-31.5 155T763-197.5q-54 54.5-127 86T480-80Zm0-60q142 0 241-99.5T820-480q0-142-99-241t-241-99q-141 0-240.5 99T140-480q0 141 99.5 240.5T480-140Zm0-340Z"/></symbol>
    <symbol id="mi-chevron_left" viewBox="0 -960 960 960"><path fill="currentColor" d="M561-240 320-481l241-241 43 43-198 198 198 198-43 43Z"/></symbol>
    <symbol id="mi-close" viewBox="0 -960 960 960"><path fill="currentColor" d="m249-207-42-42 231-231-231-231 42-42 231 231 231-231 42 42-231 231 231 231-42 42-231-231-231 231Z"/></symbol>
    <symbol id="mi-content_copy" viewBox="0 -960 960 960"><path fill="currentColor" d="M300-200q-24 0-42-18t-18-42v-560q0-24 18-42t42-18h440q24 0 42 18t18 42v560q0 24-18 42t-42 18H300Zm0-60h440v-560H300v560ZM180-80q-24 0-42-18t-18-42v-620h60v620h500v60H180Zm120-180v-560 560Z"/></symbol>
    <symbol id="mi-dashboard" viewBox="0 -960 960 960"><path fill="currentColor" d="M510-570v-270h330v270H510ZM120-450v-390h330v390H120Zm390 330v-390h330v390H510Zm-390 0v-270h330v270H120Zm60-390h210v-270H180v270Zm390 330h210v-270H570v270Zm0-450h210v-150H570v150ZM180-180h210v-150H180v150Zm210-330Zm180-120Zm0 180ZM390-330Z"/></symbol>
    <symbol id="mi-description" viewBox="0 -960 960 960"><path fill="currentColor" d="M319-250h322v-60H319v60Zm0-170h322v-60H319v60ZM220-80q-24 0-42-18t-18-42v-680q0-24 18-42t42-18h361l219 219v521q0 24-18 42t-42 18H220Zm331-554v-186H220v680h520v-494H551ZM220-820v186-186 680-680Z"/></symbol>
    <symbol id="mi-directions_alt" viewBox="0 -960 960 960"><path fill="currentColor" d="M479.95-77Q468-77 456.5-81T437-93L93-437q-8-8-12-19.55t-4-23.5q0-11.95 4-23.45T93-523l344-344q8-8 19.55-12t23.5-4q11.95 0 23.45 4t19.5 12l344 344q8 8 12 19.55t4 23.5q0 11.95-4 23.45T867-437L523-93q-8 8-19.55 12t-23.5 4ZM308-308l172 172 344-344-344-344-344 344 172 172Zm172 25 197-197-197-197-43 43 124 124H283v60h278L437-326l43 43Zm0-197Z"/></symbol>
    <symbol id="mi-download" viewBox="0 -960 960 960"><path fill="currentColor" d="M480-313 287-506l43-43 120 120v-371h60v371l120-120 43 43-193 193ZM220-160q-24 0-42-18t-18-42v-143h60v143h520v-143h60v143q0 24-18 42t-42 18H220Z"/></symbol>
    <symbol id="mi-edit" viewBox="0 -960 960 960"><path fill="currentColor" d="M180-180h44l472-471-44-44-472 471v44Zm-60 60v-128l575-574q8-8 19-12.5t23-4.5q11 0 22 4.5t20 12.5l44 44q9 9 13 20t4 22q0 11-4.5 22.5T823-694L248-120H120Zm659-617-41-41 41 41Zm-105 64-22-22 44 44-22-22Z"/></symbol>
    <symbol id="mi-edit_note" viewBox="0 -960 960 960"><path fill="currentColor" d="M160-410v-60h300v60H160Zm0-165v-60h470v60H160Zm0-165v-60h470v60H160Zm360 580v-123l221-220q9-9 20-13t22-4q12 0 23 4.5t20 13.5l37 37q9 9 13 20t4 22q0 11-4.5 22.5T862.09-380L643-160H520Zm300-263-37-37 37 37ZM580-220h38l121-122-18-19-19-18-122 121v38Zm141-141-19-18 37 37-18-19Z"/></symbol>
    <symbol id="mi-event" viewBox="0 -960 960 960"><path fill="currentColor" d="M528-248.18q-28-28.19-28-69Q500-358 528.18-386q28.19-28 69-28Q638-414 666-385.82q28 28.19 28 69Q694-276 665.82-248q-28.19 28-69 28Q556-220 528-248.18ZM180-80q-24 0-42-18t-18-42v-620q0-24 18-42t42-18h65v-60h65v60h340v-60h65v60h65q24 0 42 18t18 42v620q0 24-18 42t-42 18H180Zm0-60h600v-430H180v430Zm0-490h600v-130H180v130Zm0 0v-130 130Z"/></symbol>
    <symbol id="mi-event_available" viewBox="0 -960 960 960"><path fill="currentColor" d="M433-228 295-365l42-42 96 94 184-184 42 43-226 226ZM180-80q-24 0-42-18t-18-42v-620q0-24 18-42t42-18h65v-60h65v60h340v-60h65v60h65q24 0 42 18t18 42v620q0 24-18 42t-42 18H180Zm0-60h600v-430H180v430Zm0-490h600v-130H180v130Zm0 0v-130 130Z"/></symbol>
    <symbol id="mi-event_busy" viewBox="0 -960 960 960"><path fill="currentColor" d="m381-218-43-43 100-99-100-99 43-43 99 100 99-100 43 43-100 99 100 99-43 43-99-100-99 100ZM180-80q-24 0-42-18t-18-42v-620q0-24 18-42t42-18h65v-60h65v60h340v-60h65v60h65q24 0 42 18t18 42v620q0 24-18 42t-42 18H180Zm0-60h600v-430H180v430Zm0-490h600v-130H180v130Zm0 0v-130 130Z"/></symbol>
    <symbol id="mi-expand_more" viewBox="0 -960 960 960"><path fill="currentColor" d="M480-344 240-584l43-43 197 197 197-197 43 43-240 240Z"/></symbol>
    <symbol id="mi-feedback" viewBox="0 -960 960 960"><path fill="currentColor" d="M479.98-367q14.02 0 23.52-9.48t9.5-23.5q0-14.02-9.48-23.52t-23.5-9.5q-14.02 0-23.52 9.48t-9.5 23.5q0 14.02 9.48 23.52t23.5 9.5ZM450-509h60v-251h-60v251ZM80-80v-740q0-24 18-42t42-18h680q24 0 42 18t18 42v520q0 24-18 42t-42 18H240L80-80Zm134-220h606v-520H140v600l74-80Zm-74 0v-520 520Z"/></symbol>
    <symbol id="mi-folder" viewBox="0 -960 960 960"><path fill="currentColor" d="M140-160q-24 0-42-18.5T80-220v-520q0-23 18-41.5t42-18.5h281l60 60h339q23 0 41.5 18.5T880-680v460q0 23-18.5 41.5T820-160H140Zm0-60h680v-460H456l-60-60H140v520Zm0 0v-520 520Z"/></symbol>
    <symbol id="mi-format_quote" viewBox="0 -960 960 960"><path fill="currentColor" d="m248-240 94-162q-5 1-11 1.5t-11 .5q-66 0-113-47t-47-113q0-66 47-113t113-47q66 0 113 47t47 113q0 21-5.5 41T458-480L320-240h-72Zm360 0 94-162q-5 1-11 1.5t-11 .5q-66 0-113-47t-47-113q0-66 47-113t113-47q66 0 113 47t47 113q0 21-5.5 41T818-480L680-240h-72ZM376.5-503.5Q400-527 400-560t-23.5-56.5Q353-640 320-640t-56.5 23.5Q240-593 240-560t23.5 56.5Q287-480 320-480t56.5-23.5Zm360 0Q760-527 760-560t-23.5-56.5Q713-640 680-640t-56.5 23.5Q600-593 600-560t23.5 56.5Q647-480 680-480t56.5-23.5ZM680-560Zm-360 0Z"/></symbol>
    <symbol id="mi-grass" viewBox="0 -960 960 960"><path fill="currentColor" d="M80-160v-60h240q-20-91-87.5-159.5T80-470q20-5 39.5-7.5T160-480q134 0 227 93t93 227H80Zm460 0q0-42-8-73.5T512-296q40-88 120-136t168-48q21 0 40.5 2.5T880-470q-85 22-154 91.5T640-220h240v60H540Zm-58-193q-9-76 13-142t64.5-115Q602-659 662-688t127-31q-56 35-105.5 95.5T621-494q-44 21-80 58.5T482-353Zm-61-76q-16-15-35-30t-32-23q3-12 4.5-26.5T360-532q0-76-24-144t-68-124q70 28 124 88.5T468-573q-18 32-30.5 69.5T421-429Z"/></symbol>
    <symbol id="mi-group" viewBox="0 -960 960 960"><path fill="currentColor" d="M38-160v-94q0-35 18-63.5t50-42.5q73-32 131.5-46T358-420q62 0 120 14t131 46q32 14 50.5 42.5T678-254v94H38Zm700 0v-94q0-63-32-103.5T622-423q69 8 130 23.5t99 35.5q33 19 52 47t19 63v94H738ZM250-523q-42-42-42-108t42-108q42-42 108-42t108 42q42 42 42 108t-42 108q-42 42-108 42t-108-42Zm426 0q-42 42-108 42-11 0-24.5-1.5T519-488q24-25 36.5-61.5T568-631q0-45-12.5-79.5T519-774q11-3 24.5-5t24.5-2q66 0 108 42t42 108q0 66-42 108ZM98-220h520v-34q0-16-9.5-31T585-306q-72-32-121-43t-106-11q-57 0-106.5 11T130-306q-14 6-23 21t-9 31v34Zm324.5-346.5Q448-592 448-631t-25.5-64.5Q397-721 358-721t-64.5 25.5Q268-670 268-631t25.5 64.5Q319-541 358-541t64.5-25.5ZM358-220Zm0-411Z"/></symbol>
    <symbol id="mi-hourglass_empty" viewBox="0 -960 960 960"><path fill="currentColor" d="M308-140h344v-127q0-72-50-121.5T480-438q-72 0-122 49.5T308-267v127Zm294-432q50-50 50-122v-126H308v126q0 72 50 122t122 50q72 0 122-50ZM160-80v-60h88v-127q0-71 40-129t106-84q-66-27-106-85t-40-129v-126h-88v-60h640v60h-88v126q0 71-40 129t-106 85q66 26 106 84t40 129v127h88v60H160Z"/></symbol>
    <symbol id="mi-hourglass_top" viewBox="0 -960 960 960"><path fill="currentColor" d="M308-140h344v-127q0-72-50-121.5T480-438q-72 0-122 49.5T308-267v127ZM160-80v-60h88v-127q0-71 40-129t106-84q-66-27-106-85t-40-129v-126h-88v-60h640v60h-88v126q0 71-40 129t-106 85q66 26 106 84t40 129v127h88v60H160Z"/></symbol>
    <symbol id="mi-hub" viewBox="0 -960 960 960"><path fill="currentColor" d="M153-73q-33-33-33-81t33.25-81q33.25-33 80.75-33 14 0 24.5 2.5T280-258l85-106q-19-23-29-52.5t-5-61.5l-121-41q-15 25-39.5 39T114-466q-47.5 0-80.75-33.25T0-580q0-47.5 33.25-80.75T114-694q47.5 0 80.75 33.25T228-580v4l122 42q18-32 43.5-49t56.5-24v-129q-39-11-61.5-43T366-846q0-47.5 33-80.75T480-960q48 0 81 33.25T594-846q0 35-23 67t-61 43v129q31 7 57 24t44 49l121-42v-4q0-47.5 33.25-80.75T846-694q47.5 0 80.75 33T960-580q0 48-33.25 81T846-466q-32 0-57-14t-39-39l-121 41q5 32-4.5 61.5T595-364l85 106q11-5 21.5-7.5t24.06-2.5Q774-268 807-235t33 81q0 48-33 81t-81 33q-48 0-81-33.25T612-154q0-20 5.5-36t15.5-31l-85-106q-32.13 17-68.56 17Q443-310 411-327l-84 107q10 15 15.5 30.5T348-154q0 47.5-33 80.75T234-40q-48 0-81-33Zm-38.96-453q22.96 0 38.46-15.54 15.5-15.53 15.5-38.5 0-22.96-15.54-38.46-15.53-15.5-38.5-15.5Q91-634 75.5-618.46 60-602.93 60-579.96 60-557 75.54-541.5q15.53 15.5 38.5 15.5ZM272.5-115.54q15.5-15.53 15.5-38.5 0-22.96-15.54-38.46-15.53-15.5-38.5-15.5-22.96 0-38.46 15.54-15.5 15.53-15.5 38.5 0 22.96 15.54 38.46 15.53 15.5 38.5 15.5 22.96 0 38.46-15.54Zm246-692q15.5-15.53 15.5-38.5 0-22.96-15.54-38.46-15.53-15.5-38.5-15.5-22.96 0-38.46 15.54-15.5 15.53-15.5 38.5 0 22.96 15.54 38.46 15.53 15.5 38.5 15.5 22.96 0 38.46-15.54ZM480.5-370q37.5 0 63.5-26.5t26-64q0-37.5-26.1-63.5T480-550q-37 0-63.5 26.1T390-460q0 37 26.5 63.5t64 26.5Zm284 254.46q15.5-15.53 15.5-38.5 0-22.96-15.54-38.46-15.53-15.5-38.5-15.5-22.96 0-38.46 15.54-15.5 15.53-15.5 38.5 0 22.96 15.54 38.46 15.53 15.5 38.5 15.5 22.96 0 38.46-15.54Zm120-426q15.5-15.53 15.5-38.5 0-22.96-15.54-38.46-15.53-15.5-38.5-15.5-22.96 0-38.46 15.54-15.5 15.53-15.5 38.5 0 22.96 15.54 38.46 15.53 15.5 38.5 15.5 22.96 0 38.46-15.54ZM480-846ZM114-580Zm366 120Zm366-120ZM234-154Zm492 0Z"/></symbol>
    <symbol id="mi-info" viewBox="0 -960 960 960"><path fill="currentColor" d="M453-280h60v-240h-60v240Zm50.5-323.2q9.5-9.2 9.5-22.8 0-14.45-9.48-24.22-9.48-9.78-23.5-9.78t-23.52 9.78Q447-640.45 447-626q0 13.6 9.48 22.8 9.48 9.2 23.5 9.2t23.52-9.2ZM480.27-80q-82.74 0-155.5-31.5Q252-143 197.5-197.5t-86-127.34Q80-397.68 80-480.5t31.5-155.66Q143-709 197.5-763t127.34-85.5Q397.68-880 480.5-880t155.66 31.5Q709-817 763-763t85.5 127Q880-563 880-480.27q0 82.74-31.5 155.5Q817-252 763-197.68q-54 54.31-127 86Q563-80 480.27-80Zm.23-60Q622-140 721-239.5t99-241Q820-622 721.19-721T480-820q-141 0-240.5 98.81T140-480q0 141 99.5 240.5t241 99.5Zm-.5-340Z"/></symbol>
    <symbol id="mi-insights" viewBox="0 -960 960 960"><path fill="currentColor" d="m89-412-49-36 193-310 125 146 165-268 125 186 143-226 48 35-190 301-124-184-159 258-125-146L89-412Zm494 192q48 0 82.5-33.5T700-335q0-49-34-83t-83-34q-48 0-81.5 34.5T468-335q0 48 33.5 81.5T583-220ZM797-80 685-192q-22 15-47.5 23.5T583-160q-73 0-124-51t-51-124q0-73 51-125t124-52q74 0 125.5 51.5T760-335q0 29-8.5 54.5T727-233l112 111-42 42Z"/></symbol>
    <symbol id="mi-inventory_2" viewBox="0 -960 960 960"><path fill="currentColor" d="M180-80q-24.75 0-42.37-17.63Q120-115.25 120-140v-483q-17-6-28.5-21.39T80-680v-140q0-24.75 17.63-42.38Q115.25-880 140-880h680q24.75 0 42.38 17.62Q880-844.75 880-820v140q0 20.22-11.5 35.61T840-623v483q0 24.75-17.62 42.37Q804.75-80 780-80H180Zm0-540v480h600v-480H180Zm-40-60h680v-140H140v140Zm220 260h240v-60H360v60Zm120 40Z"/></symbol>
    <symbol id="mi-lightbulb" viewBox="0 -960 960 960"><path fill="currentColor" d="M422.5-103.5Q399-127 399-161h162q0 34-23.5 57.5T480-80q-34 0-57.5-23.5ZM318-223v-60h324v60H318Zm5-121q-66-43-104.5-107.5T180-597q0-122 89-211t211-89q122 0 211 89t89 211q0 81-38 145.5T637-344H323Zm22-60h271q48-32 76-83t28-110q0-99-70.5-169.5T480-837q-99 0-169.5 70.5T240-597q0 59 28 110t77 83Zm135 0Z"/></symbol>
    <symbol id="mi-manage_accounts" viewBox="0 -960 960 960"><path fill="currentColor" d="M292-527q-42-42-42-108t42-108q42-42 108-42t108 42q42 42 42 108t-42 108q-42 42-108 42t-108-42ZM80-164v-94q0-35 17.5-63t50.5-43q72-32 133.5-46T400-424h23q-6 14-9 27.5t-5 32.5h-9q-58 0-113.5 12.5T172-310q-16 8-24 22.5t-8 29.5v34h269q5 18 12 32.5t17 27.5H80Zm587 44-10-66q-17-5-34.5-14.5T593-222l-55 12-25-42 47-44q-2-9-2-25t2-25l-47-44 25-42 55 12q12-12 29.5-21.5T657-456l10-66h54l10 66q17 5 34.5 14.5T795-420l55-12 25 42-47 44q2 9 2 25t-2 25l47 44-25 42-55-12q-12 12-29.5 21.5T731-186l-10 66h-54Zm85-143q22-22 22-58t-22-58q-22-22-58-22t-58 22q-22 22-22 58t22 58q22 22 58 22t58-22ZM464.5-570.5Q490-596 490-635t-25.5-64.5Q439-725 400-725t-64.5 25.5Q310-674 310-635t25.5 64.5Q361-545 400-545t64.5-25.5ZM400-635Zm9 411Z"/></symbol>
    <symbol id="mi-mark_chat_read" viewBox="0 -960 960 960"><path fill="currentColor" d="M701-160 567-294l42-42 92 91 177-177 42 43-219 219ZM80-80v-740q0-24 18-42t42-18h680q24 0 42 18t18 42v310h-60v-310H140v600l74-80h276v60H240L80-80Zm60-220v-520 520Z"/></symbol>
    <symbol id="mi-menu" viewBox="0 -960 960 960"><path fill="currentColor" d="M120-240v-60h720v60H120Zm0-210v-60h720v60H120Zm0-210v-60h720v60H120Z"/></symbol>
    <symbol id="mi-person" viewBox="0 -960 960 960"><path fill="currentColor" d="M372-523q-42-42-42-108t42-108q42-42 108-42t108 42q42 42 42 108t-42 108q-42 42-108 42t-108-42ZM160-160v-94q0-38 19-65t49-41q67-30 128.5-45T480-420q62 0 123 15.5T731-360q31 14 50 41t19 65v94H160Zm60-60h520v-34q0-16-9.5-30.5T707-306q-64-31-117-42.5T480-360q-57 0-111 11.5T252-306q-14 7-23 21.5t-9 30.5v34Zm324.5-346.5Q570-592 570-631t-25.5-64.5Q519-721 480-721t-64.5 25.5Q390-670 390-631t25.5 64.5Q441-541 480-541t64.5-25.5ZM480-631Zm0 411Z"/></symbol>
    <symbol id="mi-person_off" viewBox="0 -960 960 960"><path fill="currentColor" d="m813-61-99-99H160v-94q0-38 19-65t49-41q60-27 115.5-42T455-419L61-813l43-43 752 752-43 43ZM220-220h434L515-359q-8-1-17-1h-18q-57 0-111 11.5T252-306q-14 7-23 21.5t-9 30.5v34Zm511-140q31 14 50 41t19 65v8L657-389q18 6 36.5 13.5T731-360ZM550-496l-48-48q30-7 49-31t19-56q0-38-26-64t-64-26q-32 0-56 19t-31 49l-48-48q19-38 55.5-59t79.5-21q63 0 106.5 43.5T630-631q0 43-21 79.5T550-496Zm104 276H220h434ZM448-599Z"/></symbol>
    <symbol id="mi-play_circle" viewBox="0 -960 960 960"><path fill="currentColor" d="m383-310 267-170-267-170v340Zm97 230q-82 0-155-31.5t-127.5-86Q143-252 111.5-325T80-480q0-83 31.5-156t86-127Q252-817 325-848.5T480-880q83 0 156 31.5T763-763q54 54 85.5 127T880-480q0 82-31.5 155T763-197.5q-54 54.5-127 86T480-80Zm0-60q142 0 241-99.5T820-480q0-142-99-241t-241-99q-141 0-240.5 99T140-480q0 141 99.5 240.5T480-140Zm0-340Z"/></symbol>
    <symbol id="mi-priority_high" viewBox="0 -960 960 960"><path fill="currentColor" d="M479.91-120q-28.91 0-49.41-20.59-20.5-20.59-20.5-49.5t20.59-49.41q20.59-20.5 49.5-20.5t49.41 20.59q20.5 20.59 20.5 49.5t-20.59 49.41q-20.59 20.5-49.5 20.5ZM410-360v-480h140v480H410Z"/></symbol>
    <symbol id="mi-quiz" viewBox="0 -960 960 960"><path fill="currentColor" d="M572-352q12-12 12-29t-12-29q-12-12-29-12t-29 12q-12 12-12 29t12 29q12 12 29 12t29-12Zm-54-114h47q2-29 8.5-43t32.5-39q27-26 37.5-45.4Q654-612.79 654-639q0-45.88-31.5-74.94Q591-743 540-743q-38 0-68 20.5T428-665l45 19q11-25 27.5-38t39.5-13q29.78 0 48.39 17T607-637q0 20-9 35t-32 32q-32 29-40 46.5t-8 57.5ZM260-200q-24 0-42-18t-18-42v-560q0-24 18-42t42-18h560q24 0 42 18t18 42v560q0 24-18 42t-42 18H260Zm0-60h560v-560H260v560ZM140-80q-24 0-42-18t-18-42v-620h60v620h620v60H140Zm120-740v560-560Z"/></symbol>
    <symbol id="mi-schedule" viewBox="0 -960 960 960"><path fill="currentColor" d="m627-287 45-45-159-160v-201h-60v225l174 181ZM480-80q-82 0-155-31.5t-127.5-86Q143-252 111.5-325T80-480q0-82 31.5-155t86-127.5Q252-817 325-848.5T480-880q82 0 155 31.5t127.5 86Q817-708 848.5-635T880-480q0 82-31.5 155t-86 127.5Q708-143 635-111.5T480-80Zm0-400Zm0 340q140 0 240-100t100-240q0-140-100-240T480-820q-140 0-240 100T140-480q0 140 100 240t240 100Z"/></symbol>
    <symbol id="mi-school" viewBox="0 -960 960 960"><path fill="currentColor" d="M479-120 189-279v-240L40-600l439-240 441 240v317h-60v-282l-91 46v240L479-120Zm0-308 315-172-315-169-313 169 313 172Zm0 240 230-127v-168L479-360 249-485v170l230 127Zm1-240Zm-1 74Zm0 0Z"/></symbol>
    <symbol id="mi-search" viewBox="0 -960 960 960"><path fill="currentColor" d="M796-121 533-384q-30 26-70 40.5T378-329q-108 0-183-75t-75-181q0-106 75-181t182-75q106 0 180.5 75T632-585q0 43-14 83t-42 75l264 262-44 44ZM377-389q81 0 138-57.5T572-585q0-81-57-138.5T377-781q-82 0-139.5 57.5T180-585q0 81 57.5 138.5T377-389Z"/></symbol>
    <symbol id="mi-send" viewBox="0 -960 960 960"><path fill="currentColor" d="M120-160v-640l760 320-760 320Zm60-93 544-227-544-230v168l242 62-242 60v167Zm0 0v-457 457Z"/></symbol>
    <symbol id="mi-settings" viewBox="0 -960 960 960"><path fill="currentColor" d="m388-80-20-126q-19-7-40-19t-37-25l-118 54-93-164 108-79q-2-9-2.5-20.5T185-480q0-9 .5-20.5T188-521L80-600l93-164 118 54q16-13 37-25t40-18l20-127h184l20 126q19 7 40.5 18.5T669-710l118-54 93 164-108 77q2 10 2.5 21.5t.5 21.5q0 10-.5 21t-2.5 21l108 78-93 164-118-54q-16 13-36.5 25.5T592-206L572-80H388Zm48-60h88l14-112q33-8 62.5-25t53.5-41l106 46 40-72-94-69q4-17 6.5-33.5T715-480q0-17-2-33.5t-7-33.5l94-69-40-72-106 46q-23-26-52-43.5T538-708l-14-112h-88l-14 112q-34 7-63.5 24T306-642l-106-46-40 72 94 69q-4 17-6.5 33.5T245-480q0 17 2.5 33.5T254-413l-94 69 40 72 106-46q24 24 53.5 41t62.5 25l14 112Zm44-210q54 0 92-38t38-92q0-54-38-92t-92-38q-54 0-92 38t-38 92q0 54 38 92t92 38Zm0-130Z"/></symbol>
    <symbol id="mi-share" viewBox="0 -960 960 960"><path fill="currentColor" d="M686-80q-47.5 0-80.75-33.25T572-194q0-8 5-34L278-403q-16.28 17.34-37.64 27.17Q219-366 194-366q-47.5 0-80.75-33T80-480q0-48 33.25-81T194-594q24 0 45 9.3 21 9.29 37 25.7l301-173q-2-8-3.5-16.5T572-766q0-47.5 33.25-80.75T686-880q47.5 0 80.75 33.25T800-766q0 47.5-33.25 80.75T686-652q-23.27 0-43.64-9Q622-670 606-685L302-516q3 8 4.5 17.5t1.5 18q0 8.5-1 16t-3 15.5l303 173q16-15 36.09-23.5 20.1-8.5 43.07-8.5Q734-308 767-274.75T800-194q0 47.5-33.25 80.75T686-80Zm.04-60q22.96 0 38.46-15.54 15.5-15.53 15.5-38.5 0-22.96-15.54-38.46-15.53-15.5-38.5-15.5-22.96 0-38.46 15.54-15.5 15.53-15.5 38.5 0 22.96 15.54 38.46 15.53 15.5 38.5 15.5Zm-492-286q22.96 0 38.46-15.54 15.5-15.53 15.5-38.5 0-22.96-15.54-38.46-15.53-15.5-38.5-15.5-22.96 0-38.46 15.54-15.5 15.53-15.5 38.5 0 22.96 15.54 38.46 15.53 15.5 38.5 15.5ZM724.5-727.54q15.5-15.53 15.5-38.5 0-22.96-15.54-38.46-15.53-15.5-38.5-15.5-22.96 0-38.46 15.54-15.5 15.53-15.5 38.5 0 22.96 15.54 38.46 15.53 15.5 38.5 15.5 22.96 0 38.46-15.54ZM686-194ZM194-480Zm492-286Z"/></symbol>
    <symbol id="mi-show_chart" viewBox="0 -960 960 960"><path fill="currentColor" d="m126-220-46-46 300-300 160 161 298-335 42 41-340 384-160-159-254 254Z"/></symbol>
    <symbol id="mi-star" viewBox="0 -960 960 960"><path fill="currentColor" d="m323-245 157-94 157 95-42-178 138-120-182-16-71-168-71 167-182 16 138 120-42 178Zm-90 125 65-281L80-590l288-25 112-265 112 265 288 25-218 189 65 281-247-149-247 149Zm247-355Z"/></symbol>
    <symbol id="mi-supervisor_account" viewBox="0 -960 960 960"><path fill="currentColor" d="M617.5-408.5Q590-436 590-475t27.5-66.5Q645-569 684-569t66.5 27.5Q778-514 778-475t-27.5 66.5Q723-381 684-381t-66.5-27.5ZM488-160v-51q0-26 11-44.5t31-28.5q37-19 75-28t79-9q41 0 79 8.5t75 28.5q20 9 31 28t11 45v51H488ZM292-523q-42-42-42-108t42-108q42-42 108-42t108 42q42 42 42 108t-42 108q-42 42-108 42t-108-42Zm108-108ZM80-160v-94q0-34 17-62.5t51-43.5q67-30 128.5-45T400-420q32 0 57 3t54 9l-25.5 25.5L460-357q-13-2-28-2.5t-32-.5q-57 0-111 11.5T172-306q-14 7-23 22t-9 30v34h288v60H80Zm348-60Zm36.5-346.5Q490-592 490-631t-25.5-64.5Q439-721 400-721t-64.5 25.5Q310-670 310-631t25.5 64.5Q361-541 400-541t64.5-25.5Z"/></symbol>
    <symbol id="mi-timer" viewBox="0 -960 960 960"><path fill="currentColor" d="M360-860v-60h240v60H360Zm90 447h60v-230h-60v230ZM340.5-109.5Q275-138 226-187t-77.5-114.5Q120-367 120-441t28.5-139.5Q177-646 226-695t114.5-77.5Q406-801 480-801q67 0 126 22.5T711-716l51-51 42 42-51 51q36 40 61.5 97T840-441q0 74-28.5 139.5T734-187q-49 49-114.5 77.5T480-81q-74 0-139.5-28.5Zm352-119Q780-316 780-441t-87.5-212.5Q605-741 480-741t-212.5 87.5Q180-566 180-441t87.5 212.5Q355-141 480-141t212.5-87.5ZM480-440Z"/></symbol>
    <symbol id="mi-timer_off" viewBox="0 -960 960 960"><path fill="currentColor" d="m784-251-43-43q17-28 28-66t11-81q0-125-87.5-212.5T480-741q-42 0-80.5 10.5T333-702l-44-44q42-27 91.5-41t99.5-14q68 0 126.5 22.5T711-716l51-51 42 42-51 51q45 49 66 108.5T840-441q0 50-13.5 98.5T784-251ZM510-525v-118h-60v58l60 60ZM808-56 704-160q-48 38-103.5 58.5T480-81q-74 0-139.5-28.5T226-187q-49-49-77.5-114.5T120-441q0-61 18.5-116T199-665L57-807l43-43L851-99l-43 43Zm-328-85q52 0 98.5-16t85.5-47L243-625q-31 38-47 86t-16 98q0 125 87.5 212.5T480-141ZM360-860v-60h240v60H360Zm94 445Zm83-83Z"/></symbol>
    <symbol id="mi-trending_up" viewBox="0 -960 960 960"><path fill="currentColor" d="m123-240-43-43 292-291 167 167 241-241H653v-60h227v227h-59v-123L538-321 371-488 123-240Z"/></symbol>
    <symbol id="mi-video_camera_front" viewBox="0 -960 960 960"><path fill="currentColor" d="M232-318h336v-21q0-46-45-72.5T400-438q-78 0-123 26.5T232-339v21Zm168-175q35 0 57.5-22.5T480-573q0-35-22.5-57.5T400-653q-35 0-57.5 22.5T320-573q0 35 22.5 57.5T400-493ZM140-160q-24 0-42-18t-18-42v-520q0-24 18-42t42-18h520q24 0 42 18t18 42v215l160-160v410L720-435v215q0 24-18 42t-42 18H140Zm0-60h520v-520H140v520Zm0 0v-520 520Z"/></symbol>
    <symbol id="mi-videocam" viewBox="0 -960 960 960"><path fill="currentColor" d="M140-160q-24 0-42-18t-18-42v-520q0-24 18-42t42-18h520q24 0 42 18t18 42v215l160-160v410L720-435v215q0 24-18 42t-42 18H140Zm0-60h520v-520H140v520Zm0 0v-520 520Z"/></symbol>
    <symbol id="mi-visibility" viewBox="0 -960 960 960"><path fill="currentColor" d="M600.5-379.5Q650-429 650-500t-49.5-120.5Q551-670 480-670t-120.5 49.5Q310-571 310-500t49.5 120.5Q409-330 480-330t120.5-49.5Zm-200-41Q368-453 368-500t32.5-79.5Q433-612 480-612t79.5 32.5Q592-547 592-500t-32.5 79.5Q527-388 480-388t-79.5-32.5ZM216-283Q98-366 40-500q58-134 176-217t264-83q146 0 264 83t176 217q-58 134-176 217t-264 83q-146 0-264-83Zm264-217Zm222.5 174.5Q804-391 857-500q-53-109-154.5-174.5T480-740q-121 0-222.5 65.5T102-500q54 109 155.5 174.5T480-260q121 0 222.5-65.5Z"/></symbol>
    <symbol id="mi-visibility_off" viewBox="0 -960 960 960"><path fill="currentColor" d="m629-419-44-44q26-71-27-118t-115-24l-44-44q17-11 38-16t43-5q71 0 120.5 49.5T650-500q0 22-5.5 43.5T629-419Zm129 129-40-40q49-36 85.5-80.5T857-500q-50-111-150-175.5T490-740q-42 0-86 8t-69 19l-46-47q35-16 89.5-28T485-800q143 0 261.5 81.5T920-500q-26 64-67 117t-95 93Zm58 226L648-229q-35 14-79 21.5t-89 7.5q-146 0-265-81.5T40-500q20-52 55.5-101.5T182-696L56-822l42-43 757 757-39 44ZM223-654q-37 27-71.5 71T102-500q51 111 153.5 175.5T488-260q33 0 65-4t48-12l-64-64q-11 5-27 7.5t-30 2.5q-70 0-120-49t-50-121q0-15 2.5-30t7.5-27l-97-97Zm305 142Zm-116 58Z"/></symbol>
    <symbol id="mi-warning" viewBox="0 -960 960 960"><path fill="currentColor" d="m40-120 440-760 440 760H40Zm104-60h672L480-760 144-180Zm361.5-65.68q8.5-8.67 8.5-21.5 0-12.82-8.68-21.32-8.67-8.5-21.5-8.5-12.82 0-21.32 8.68-8.5 8.67-8.5 21.5 0 12.82 8.68 21.32 8.67 8.5 21.5 8.5 12.82 0 21.32-8.68ZM454-348h60v-224h-60v224Zm26-122Z"/></symbol>
  </defs>
</svg>
